<?xml version="1.0" encoding="UTF-8"?>
<svg version="1.1" xmlns="http://www.w3.org/2000/svg" width="3509" height="2482">
<path d="M0 0 C40.59 0 81.18 0 123 0 C123.33 71.28 123.66 142.56 124 216 C128.62 209.73 133.24 203.46 138 197 C140.31 194.36 142.62 191.72 145 189 C146.29762467 187.3695162 147.57682465 185.72391341 148.82421875 184.0546875 C149.46037109 183.20519531 150.09652344 182.35570312 150.75195312 181.48046875 C151.39068359 180.62066406 152.02941406 179.76085938 152.6875 178.875 C153.33783203 178.00746094 153.98816406 177.13992188 154.65820312 176.24609375 C157.24797739 172.7772218 159.78726345 169.32782354 162.14453125 165.6953125 C164 163 164 163 166.27734375 160.74609375 C170.14695819 156.84316842 173.29556572 152.47302189 176.5625 148.0625 C177.22185547 147.18142578 177.88121094 146.30035156 178.56054688 145.39257812 C181.1849341 141.87141537 183.76088217 138.36844109 186.15234375 134.68359375 C188.16935307 131.7540263 190.46683317 129.49042935 193 127 C194.61676433 125.00581221 196.19872884 122.98304873 197.75 120.9375 C198.17901611 120.37458252 198.60803223 119.81166504 199.05004883 119.23168945 C201.18590319 116.42325483 203.30096226 113.59992523 205.40234375 110.765625 C206.15644531 109.74984375 206.91054687 108.7340625 207.6875 107.6875 C208.35136719 106.78386719 209.01523438 105.88023438 209.69921875 104.94921875 C211.51842291 102.6173017 213.37740299 100.42594876 215.34375 98.22265625 C219.1321315 93.93557677 222.47350866 89.39052809 225.8125 84.75 C230.50381475 78.30145952 235.32262099 72.09963979 240.49609375 66.03125 C245.11337185 60.44153423 249.36910916 54.57358493 253.69140625 48.75488281 C257.01167744 44.30225048 260.40331405 39.91094422 263.96484375 35.6484375 C269.44982358 29.08233144 274.47993467 22.283557 279.39501953 15.28149414 C282.33053892 11.13975135 285.32911567 7.53353832 289 4 C289.4198306 3.30432041 289.8396612 2.60864082 290.27221394 1.89188004 C292 0 292 0 294.66489697 -0.49219131 C296.28679172 -0.48666056 296.28679172 -0.48666056 297.94145203 -0.48101807 C299.80295898 -0.48926605 299.80295898 -0.48926605 301.70207214 -0.49768066 C303.07962421 -0.48352408 304.45717239 -0.46898484 305.8347168 -0.45410156 C307.28341643 -0.45297343 308.73211835 -0.45360628 310.18081665 -0.45587158 C314.11666356 -0.45702102 318.05202459 -0.43347511 321.9877584 -0.40557575 C326.09970889 -0.38060003 330.21167006 -0.37822313 334.32368469 -0.37347412 C342.11166363 -0.36103304 349.89941843 -0.32819623 357.6872986 -0.28807616 C366.55294775 -0.24339358 375.41860752 -0.22138028 384.28434122 -0.20129442 C402.5230213 -0.15946449 420.76149264 -0.08909055 439 0 C435.63587709 6.90705469 430.53182035 12.48177744 425.3125 18.0625 C420.58273718 23.17439304 416.43338372 28.59784681 412.37426758 34.25415039 C409.41941867 38.31764029 406.2563149 41.83526846 402.65356445 45.33398438 C400.25197487 47.75365769 398.23219988 50.4010557 396.1875 53.125 C395.33335008 54.25261686 394.47918288 55.38022062 393.625 56.5078125 C392.74988764 57.67179054 391.87488899 58.83585407 391 60 C389.2352625 62.33802068 387.4629352 64.6700977 385.6875 67 C384.90761719 68.03125 384.12773438 69.0625 383.32421875 70.125 C381 73 381 73 378.6484375 75.34765625 C375.15649904 78.84474507 372.06742388 82.61720054 368.9375 86.4375 C368.32583984 87.17548828 367.71417969 87.91347656 367.08398438 88.67382812 C364.52367684 91.78771566 362.09755128 94.85178673 359.87890625 98.22265625 C357.85485553 101.21454827 355.58794255 103.48644612 353 106 C351.20300585 108.02531179 349.43267342 110.05646171 347.6875 112.125 C346.97182861 112.96998047 346.97182861 112.96998047 346.24169922 113.83203125 C342.54166512 118.24776084 339.13099174 122.82394145 335.8515625 127.5625 C333.77319383 130.29858027 331.42961932 132.57038068 329 135 C326.79580425 137.55740502 324.67839618 140.18185948 322.5625 142.8125 C322.01529297 143.48603516 321.46808594 144.15957031 320.90429688 144.85351562 C318.15828969 148.24946534 315.48629642 151.67820105 312.90234375 155.19921875 C310.50396261 158.42744604 307.86895845 161.17538403 305 164 C302.79512856 166.556796 300.67837849 169.18188149 298.5625 171.8125 C298.01529297 172.48603516 297.46808594 173.15957031 296.90429688 173.85351562 C294.15828969 177.24946534 291.48629642 180.67820105 288.90234375 184.19921875 C286.5065243 187.42658639 283.86769273 190.17797117 281 193 C279.18476245 195.15854817 277.46780572 197.38854731 275.75 199.625 C274.77554047 200.87822731 273.80027059 202.13082493 272.82421875 203.3828125 C272.3451709 203.99801758 271.86612305 204.61322266 271.37255859 205.24707031 C266.60927968 211.33037565 261.6593486 217.25177612 256.60424805 223.09326172 C250.45728636 230.19706638 244.6401131 237.48816795 239 245 C241.576321 249.55946843 244.65294398 253.65065608 247.8125 257.8125 C248.83984375 259.17317708 249.8671875 260.53385417 250.89453125 261.89453125 C251.40709473 262.5695166 251.9196582 263.24450195 252.44775391 263.93994141 C253.49152861 265.32518377 254.52493742 266.71829185 255.54833984 268.11865234 C257.72779838 271.09038764 259.82687243 273.8288022 262.453125 276.42578125 C266.01259893 280.02347039 268.80920361 284.07936458 271.75 288.1875 C277.30464525 295.85241791 277.30464525 295.85241791 283.5 303 C289.15157761 309.00148767 293.83484662 315.75338166 298.66796875 322.4140625 C299.77844537 323.94285396 300.8891168 325.47150395 302 327 C302.78431396 328.0842627 302.78431396 328.0842627 303.58447266 329.19042969 C305.72791559 332.11087924 307.80147845 334.80375656 310.3828125 337.35546875 C314.32019896 341.33399208 317.53023651 345.83301769 320.875 350.3125 C326.50734913 357.86352234 326.50734913 357.86352234 332.56640625 365.0703125 C336.38076294 369.34466761 339.71553582 373.91826289 343.0625 378.5625 C346.3843263 383.16335733 349.67729814 387.70609264 353.43359375 391.96484375 C356 395 356 395 356 397 C356.56332031 397.19722656 357.12664062 397.39445312 357.70703125 397.59765625 C360.91691257 399.56076936 362.62946955 402.3737903 364.6875 405.4375 C369.15992451 411.89638015 373.94972756 417.9788639 379 424 C384.46791408 430.58051573 389.75392886 437.24981084 394.84765625 444.125 C397.42082216 447.56211453 400.08750022 450.91785742 402.78515625 454.2578125 C404 456 404 456 404 458 C404.59312988 458.2460498 405.18625977 458.49209961 405.79736328 458.74560547 C408.37009061 460.21076541 409.52068288 461.67240857 411.2421875 464.0703125 C411.83386719 464.885 412.42554688 465.6996875 413.03515625 466.5390625 C413.64230469 467.39242188 414.24945312 468.24578125 414.875 469.125 C416.08044478 470.79447621 417.28617138 472.46374897 418.4921875 474.1328125 C419.07774414 474.94717773 419.66330078 475.76154297 420.26660156 476.60058594 C421.92654821 478.89832617 423.5990809 481.18520599 425.2890625 483.4609375 C425.7526416 484.08532715 426.2162207 484.7097168 426.69384766 485.35302734 C428.11842151 487.21396238 428.11842151 487.21396238 430.5 489.5 C439 498 439 498 439 502 C419.85891365 502.23386537 400.71811818 502.41007118 381.57589817 502.51812172 C372.68723788 502.56963114 363.79946654 502.63982183 354.91137695 502.75439453 C347.1621364 502.85423897 339.41353973 502.91862194 331.66367382 502.94088495 C327.5618271 502.95389472 323.46182192 502.98434203 319.36056709 503.05730057 C315.49482459 503.1255082 311.63166987 503.14605404 307.76538277 503.13107681 C306.35158179 503.13381377 304.93768865 503.15352112 303.52441025 503.19205475 C292.90164956 503.46732623 292.90164956 503.46732623 288.21218681 499.84890366 C285.91309117 497.33465345 283.93164963 494.80305047 282 492 C281.41960748 491.22430475 280.83921495 490.4486095 280.24123478 489.64940834 C278.75011907 487.65499235 277.33898501 485.62069609 275.9375 483.5625 C274.91452603 482.08952172 273.89108782 480.61686575 272.8671875 479.14453125 C272.37959961 478.43893066 271.89201172 477.73333008 271.38964844 477.00634766 C269.47111944 474.23641243 267.52624666 471.48812978 265.5625 468.75 C264.98628906 467.94046875 264.41007812 467.1309375 263.81640625 466.296875 C261.99089786 463.8909558 261.99089786 463.8909558 259.5390625 461.578125 C256.88805842 458.88633625 254.90543749 456.14136958 252.8125 453 C247.00433535 444.41760285 240.6821067 436.27329205 234.125 428.25 C230.57269861 423.85259465 227.3501894 419.26317788 224.125 414.625 C220.6013491 409.56037142 217.01482608 404.68611533 213 400 C207.8512511 393.98758999 203.3634992 387.58133994 198.859375 381.078125 C194.57922224 374.9375482 190.31575397 369.28965371 185 364 C183.55898415 362.03230489 182.16478612 360.02969775 180.8125 358 C177.69355291 353.39104294 174.47312955 348.89777653 171.0625 344.5 C170.64436035 343.96076904 170.2262207 343.42153809 169.79541016 342.8659668 C168.53255102 341.24218688 167.26676768 339.62073199 166 338 C160.18556563 330.54729666 154.49768059 323.01958121 148.9375 315.375 C148.36475342 314.59229736 147.79200684 313.80959473 147.2019043 313.00317383 C146.66992432 312.26736084 146.13794434 311.53154785 145.58984375 310.7734375 C144.87622681 309.78996338 144.87622681 309.78996338 144.14819336 308.78662109 C143 307 143 307 142 304 C141.01 303.67 140.02 303.34 139 303 C137.60546875 301.3894043 137.60546875 301.3894043 136.1875 299.32421875 C135.66929687 298.57849609 135.15109375 297.83277344 134.6171875 297.06445312 C134.08351563 296.28005859 133.54984375 295.49566406 133 294.6875 C131.93787939 293.14947752 130.87539093 291.61170899 129.8125 290.07421875 C129.34457031 289.38932373 128.87664062 288.70442871 128.39453125 287.9987793 C126.97621995 285.96591609 125.48724252 283.98299003 124 282 C123.67 354.6 123.34 427.2 123 502 C82.41 502 41.82 502 0 502 C0 336.34 0 170.68 0 0 Z " fill="#FFFFFF" transform="translate(1022,1110)"/>
<path d="M0 0 C0.99 0 1.98 0 3 0 C3.28609131 0.6077124 3.57218262 1.2154248 3.86694336 1.84155273 C10.91160093 16.8068151 10.91160093 16.8068151 18.5 31.5 C22.00745585 37.98686529 25.22663815 44.58184036 28.375 51.25 C31.92169578 58.75948437 35.60075853 66.16736796 39.5 73.5 C45.34420209 84.5029472 50.73768762 95.70854637 56 107 C56.47211914 108.00772461 56.94423828 109.01544922 57.43066406 110.05371094 C57.88924805 111.0440332 58.34783203 112.03435547 58.8203125 113.0546875 C59.23812988 113.95429199 59.65594727 114.85389648 60.08642578 115.78076172 C61 118 61 118 61 120 C61.66 120 62.32 120 63 120 C65.17044241 124.46086485 67.33913714 128.92257388 69.50634766 133.38500977 C70.24091605 134.89695095 70.97592799 136.40867673 71.71142578 137.92016602 C85 165.2315399 85 165.2315399 85 168 C85.66 168 86.32 168 87 168 C90.77205389 175.81673356 94.53841711 183.63617493 98.29785156 191.45898438 C99.36398194 193.67687809 100.4309119 195.89438783 101.49902344 198.11132812 C102.77413499 200.75984677 104.04422595 203.410702 105.3125 206.0625 C105.69075928 206.8460083 106.06901855 207.6295166 106.45874023 208.43676758 C109 213.77058076 109 213.77058076 109 216 C109.66 216 110.32 216 111 216 C111.48879639 217.03817871 111.97759277 218.07635742 112.48120117 219.14599609 C114.3157848 223.04174029 116.15193279 226.93674553 117.98852539 230.83154297 C118.77930901 232.50907988 119.56968279 234.18681005 120.35961914 235.86474609 C121.50295913 238.29316842 122.6475681 240.72098648 123.79296875 243.1484375 C124.16163055 243.93023376 124.53029236 244.71203003 124.91012573 245.51751709 C127.2587706 250.48152239 129.67504661 255.4028863 132.21606445 260.27197266 C133 262 133 262 133 264 C133.66 264 134.32 264 135 264 C135.44931885 264.99737183 135.44931885 264.99737183 135.90771484 266.01489258 C142.95670912 281.59055527 150.41229613 296.88808746 158.29199219 312.05938721 C164.37691201 323.77727186 170.24889053 335.56342876 175.82177734 347.53588867 C178.09358595 352.28710381 180.48634816 356.97899907 182.8527832 361.68359375 C186.32723885 368.59555187 189.75648415 375.5262993 193.10546875 382.5 C193.4422464 383.20044434 193.77902405 383.90088867 194.12600708 384.62255859 C195.49555215 387.47247707 196.86423458 390.32277605 198.22631836 393.17626953 C203.04159281 403.29135156 203.04159281 403.29135156 208.75512695 412.91503906 C211.7854868 417.9904015 214.05949668 423.49797907 216.5 428.875 C217.61209421 431.31104656 218.72772313 433.74543595 219.84375 436.1796875 C220.37355469 437.33694336 220.90335938 438.49419922 221.44921875 439.68652344 C223.25458417 443.54395724 225.16570289 447.33764565 227.13476562 451.11376953 C228 453 228 453 228 455 C228.66 455 229.32 455 230 455 C232.53130899 460.29980902 235.05802113 465.60177582 237.58056641 470.90576172 C238.43869194 472.70844036 239.29805321 474.51053132 240.15869141 476.31201172 C241.39814251 478.90697814 242.63308056 481.50405108 243.8671875 484.1015625 C244.25059296 484.9017984 244.63399841 485.7020343 245.02902222 486.52651978 C246.97009845 490.62362381 248.6796701 494.64960425 250 499 C244.66090179 498.37284975 239.75301234 497.1724731 234.62109375 495.59375 C233.82368774 495.35301254 233.02628174 495.11227509 232.20471191 494.86424255 C229.61415077 494.08098662 227.02581563 493.2906415 224.4375 492.5 C222.64475413 491.95599506 220.85186542 491.41246064 219.05883789 490.86938477 C216.3387934 490.04533877 213.61890542 489.22080357 210.89964294 488.3941803 C205.25175517 486.67778414 199.59805171 484.98272306 193.9375 483.30859375 C192.56321823 482.90108953 191.18895022 482.49353889 189.81469727 482.0859375 C187.29537311 481.33885697 184.77492568 480.59602413 182.25366211 479.85546875 C181.12710205 479.5203125 180.00054199 479.18515625 178.83984375 478.83984375 C177.87425537 478.55488037 176.90866699 478.26991699 175.91381836 477.97631836 C173 477 173 477 169.7199707 475.56347656 C165.47180666 473.70345825 161.08950389 472.43311562 156.640625 471.14453125 C155.74605087 470.8816481 154.85147675 470.61876495 153.92979431 470.34791565 C152.02223022 469.78794554 150.11408688 469.2299455 148.20541382 468.67376709 C145.22859331 467.80626166 142.25339326 466.93339099 139.27856445 466.05908203 C131.29539885 463.71419301 123.30866678 461.38155579 115.32119751 459.05137634 C113.41587522 458.49486376 111.51114749 457.93631681 109.60644531 457.37768555 C107.39994428 456.7305776 105.19233441 456.08723305 102.98339844 455.44848633 C99.08293721 454.30432081 95.34459279 453.14887361 91.609375 451.53515625 C86.23319517 449.24853431 80.66305311 447.7081496 75.0625 446.0625 C73.76922231 445.67871492 72.47609474 445.29442364 71.18310547 444.90966797 C68.35292559 444.06795982 65.52215146 443.22829396 62.69091797 442.39013672 C54.88873023 440.07930759 47.09097512 437.7536631 39.29489136 435.42233276 C36.66614076 434.63728622 34.03635405 433.85578389 31.40649414 433.07446289 C29.76313381 432.58366275 28.11982107 432.09270324 26.4765625 431.6015625 C25.36880211 431.27388634 25.36880211 431.27388634 24.23866272 430.93959045 C18.36567559 429.17803436 12.66287503 427.10953126 7 424.75 C-1.18955742 422.70261065 -10.90522464 426.40398593 -18.53149414 429.37646484 C-23.4038395 431.21156515 -28.37377822 432.55595478 -33.40234375 433.890625 C-34.38989151 434.15624237 -35.37743927 434.42185974 -36.39491272 434.69552612 C-38.49419162 435.25980534 -40.59392992 435.82237785 -42.6940918 436.38336182 C-47.04394154 437.54564101 -51.39126276 438.71723385 -55.73867798 439.88858032 C-57.88031788 440.46560656 -60.02206103 441.04224971 -62.16390991 441.61849976 C-70.11733123 443.75879233 -78.06513959 445.91679909 -86 448.125 C-86.93835693 448.38313477 -87.87671387 448.64126953 -88.84350586 448.90722656 C-89.69952393 449.14666992 -90.55554199 449.38611328 -91.4375 449.6328125 C-92.13746094 449.82762207 -92.83742188 450.02243164 -93.55859375 450.22314453 C-95.63410985 450.88357375 -97.67797741 451.64216709 -99.7121582 452.4206543 C-104.13007531 454.09483397 -108.61461219 455.38665578 -113.16796875 456.63671875 C-114.46634674 456.99788536 -114.46634674 456.99788536 -115.79095459 457.36634827 C-118.58881911 458.14366644 -121.38808039 458.91580284 -124.1875 459.6875 C-126.11863794 460.22208886 -128.04970848 460.75692121 -129.98071289 461.29199219 C-133.83758553 462.36026201 -137.6950155 463.42648988 -141.55273438 464.49169922 C-146.41906159 465.83692615 -151.28053276 467.19885867 -156.140625 468.56640625 C-157.48797609 468.9439841 -158.83538591 469.32135244 -160.18286133 469.69848633 C-162.62901543 470.38354945 -165.07421865 471.07201991 -167.51831055 471.7644043 C-168.5937915 472.06386963 -169.66927246 472.36333496 -170.77734375 472.671875 C-171.69765381 472.9306543 -172.61796387 473.18943359 -173.56616211 473.45605469 C-176 474 -176 474 -180 474 C-180 474.66 -180 475.32 -180 476 C-180.49773926 476.11915771 -180.99547852 476.23831543 -181.50830078 476.36108398 C-184.97935058 477.25112291 -188.42128121 478.24079124 -191.8671875 479.22265625 C-193.47757857 479.67983503 -195.08801336 480.13685982 -196.69848633 480.59375 C-197.54327545 480.83351563 -198.38806458 481.07328125 -199.25845337 481.3203125 C-213.95095729 485.48786397 -228.65882842 489.57349691 -243.43115234 493.44946289 C-249.26891846 494.98454812 -255.05220106 496.58178098 -260.7878418 498.46679688 C-263.25678085 499.06189266 -265.46949033 499.09129988 -268 499 C-260.37074313 483.54968929 -252.44388534 468.28680329 -243.97021484 453.28198242 C-239.56267965 445.37979126 -235.58924713 437.26048866 -231.64135742 429.12084961 C-229.37520739 424.50042345 -227.13585835 420.03698284 -224.17578125 415.8203125 C-219.32833687 408.82029837 -215.76140284 401.02510521 -211.9375 393.4375 C-210.7479605 391.08239097 -209.55668635 388.72821907 -208.36097717 386.37623596 C-207.62256446 384.9233286 -206.88761941 383.46865102 -206.15696716 382.01182556 C-204.0306676 377.82281393 -201.69460767 373.84927162 -199.1728363 369.88676453 C-197.52131685 367.22993312 -196.08604908 364.48258092 -194.66015625 361.69921875 C-193.7774707 359.98508789 -193.7774707 359.98508789 -192.87695312 358.23632812 C-192.27818359 357.06521484 -191.67941406 355.89410156 -191.0625 354.6875 C-180.26865747 333.64944723 -180.26865747 333.64944723 -175.1796875 325.3828125 C-170.76102324 318.09907826 -166.99516446 310.45882691 -163.125 302.875 C-162.33364865 301.33056756 -161.54198428 299.78629547 -160.75 298.2421875 C-158.82972305 294.49662872 -156.91368324 290.74893162 -155 287 C-154.34 287 -153.68 287 -153 287 C-152.74492676 286.16154541 -152.48985352 285.32309082 -152.22705078 284.45922852 C-150.88975744 280.68921072 -149.20129755 277.19634814 -147.3671875 273.65234375 C-147.01165802 272.95919571 -146.65612854 272.26604767 -146.28982544 271.55189514 C-145.53716177 270.08760854 -144.78230696 268.62444637 -144.02539062 267.16235352 C-142.89272802 264.97178595 -141.77013238 262.77627763 -140.6484375 260.58007812 C-137.32427369 254.11231955 -133.93827289 247.76974747 -130.05078125 241.6171875 C-124.90667381 233.43736978 -120.65689299 224.8104748 -116.3125 216.1875 C-115.06506356 213.71661162 -113.81591344 211.24664639 -112.56230164 208.77888489 C-111.79051084 207.25919984 -111.02217292 205.7377537 -110.25813293 204.2141571 C-108.10199988 199.96390116 -105.74528868 195.92881812 -103.1855011 191.90986633 C-101.42327467 189.07088379 -99.89810229 186.12708041 -98.37109375 183.15625 C-98.05471451 182.54285767 -97.73833527 181.92946533 -97.41236877 181.29748535 C-96.41750625 179.36663664 -95.42746848 177.43336161 -94.4375 175.5 C-93.77179121 174.20687324 -93.10577748 172.91390342 -92.43945312 171.62109375 C-89.25384582 165.4335099 -86.09351232 159.23425383 -83 153 C-82.34 153 -81.68 153 -81 153 C-80.72164307 152.28175049 -80.44328613 151.56350098 -80.15649414 150.82348633 C-78.17588545 145.9879914 -75.77481343 141.35851097 -73.4375 136.6875 C-72.89738281 135.60807129 -72.35726562 134.52864258 -71.80078125 133.41650391 C-67.82118086 125.5174215 -63.60623091 117.80045454 -59.20996094 110.12890625 C-50.62004443 95.01509029 -42.65442829 79.60536303 -35 64 C-34.34 64 -33.68 64 -33 64 C-32.76152344 63.18789062 -32.52304688 62.37578125 -32.27734375 61.5390625 C-30.73112301 57.25503806 -28.71229329 53.38216824 -26.5625 49.375 C-25.90423218 48.13689575 -25.90423218 48.13689575 -25.23266602 46.8737793 C-19.3998856 35.94131143 -13.44290457 25.07302377 -7.33984375 14.2890625 C-6.92355713 13.55324951 -6.50727051 12.81743652 -6.07836914 12.05932617 C-5.297758 10.68292296 -4.51454574 9.30799046 -3.72827148 7.93481445 C-2.23458718 5.30669519 -0.95899268 2.87697804 0 0 Z M1 176 C-0.67482275 180.26767998 -2.33845499 184.53963493 -4 188.8125 C-4.71542969 190.63491211 -4.71542969 190.63491211 -5.4453125 192.49414062 C-5.89648438 193.65751953 -6.34765625 194.82089844 -6.8125 196.01953125 C-7.23144531 197.09307861 -7.65039062 198.16662598 -8.08203125 199.27270508 C-9.15950035 201.9942708 -9.15950035 201.9942708 -9 205 C-9.66 205 -10.32 205 -11 205 C-13.31236985 210.97285423 -15.6234076 216.9462227 -17.93359375 222.91992188 C-18.71682812 224.94477531 -19.50034837 226.9695182 -20.28417969 228.99414062 C-21.42200908 231.93329072 -22.55882198 234.87283196 -23.6953125 237.8125 C-24.06819397 238.77575195 -24.44107544 239.73900391 -24.82525635 240.73144531 C-26.48512336 245.02944781 -28.13192965 249.33032537 -29.71777344 253.65625 C-29.97855682 254.36547607 -30.23934021 255.07470215 -30.50802612 255.80541992 C-31.1811591 257.64565808 -31.84658184 259.48871177 -32.51123047 261.33203125 C-33.69189583 264.24090571 -34.95953156 266.93777946 -36.39086914 269.72216797 C-39.18266648 275.21482166 -41.36283258 280.86092441 -43.50390625 286.6328125 C-44.11165138 288.24783157 -44.11165138 288.24783157 -44.73167419 289.89547729 C-46.01373598 293.30342314 -47.28883554 296.71390774 -48.5625 300.125 C-49.84011875 303.54308257 -51.11940465 306.96049298 -52.40403748 310.37594604 C-53.19961249 312.49134129 -53.99123469 314.60822889 -54.7782135 316.72683716 C-56.89100417 322.3470901 -59.22718442 327.67440977 -62 333 C-62.77748484 334.75893946 -63.53283194 336.52811757 -64.25 338.3125 C-64.75273437 339.54419922 -64.75273437 339.54419922 -65.265625 340.80078125 C-66.15836657 343.08782531 -66.15836657 343.08782531 -66 346 C-56.15631137 343.7940223 -46.75280585 340.64275297 -37.25 337.3125 C-35.76318572 336.79574929 -34.27620745 336.27947017 -32.7890625 335.76367188 C-29.19079939 334.51452953 -25.59479921 333.25907427 -22 332 C-22 331.34 -22 330.68 -22 330 C-20.7625 329.7525 -19.525 329.505 -18.25 329.25 C-13.31748579 328.18414125 -8.69866625 326.51181917 -3.9921875 324.70703125 C2.36102885 323.20581433 8.06758721 325.53132849 13.9375 327.8125 C14.93426758 328.1847168 14.93426758 328.1847168 15.95117188 328.56445312 C19.3227738 329.84965153 22.55572145 331.24999996 25.7578125 332.9140625 C30.97442331 335.58067008 36.44702509 337.53897507 41.9375 339.5625 C43.48727539 340.14161133 43.48727539 340.14161133 45.06835938 340.73242188 C51.00982768 342.94118811 56.97413985 345.03326984 63 347 C62.7052327 346.27679062 62.41046539 345.55358124 62.10676575 344.80845642 C61.09631721 342.24440825 60.1748549 339.6748519 59.29174805 337.06469727 C58.96768478 336.10922501 58.64362152 335.15375275 58.30973816 334.16932678 C57.96389175 333.14536301 57.61804535 332.12139923 57.26171875 331.06640625 C56.89907425 329.99688217 56.53642975 328.92735809 56.16279602 327.82542419 C55.0030751 324.40488458 53.84510422 320.9837565 52.6875 317.5625 C45.61164473 295.37832218 45.61164473 295.37832218 37.08056641 273.75292969 C34.91253016 268.92587473 33.18183479 264.00336049 31.50390625 258.98828125 C31.18848373 258.05759323 30.87306122 257.12690521 30.54808044 256.16801453 C29.54888321 253.21751179 28.55541887 250.26512079 27.5625 247.3125 C26.25307434 243.43299358 24.94132251 239.55427687 23.62890625 235.67578125 C23.31563385 234.74879425 23.00236145 233.82180725 22.67959595 232.86672974 C20.20058957 225.54794933 17.63928917 218.26252056 15 211 C14.34 211 13.68 211 13 211 C12.76539062 209.79472656 12.53078125 208.58945313 12.2890625 207.34765625 C10.84933895 200.86890028 8.58776296 194.68509791 6.375 188.4375 C5.95476563 187.23802734 5.53453125 186.03855469 5.1015625 184.80273438 C4.07225134 181.86685823 3.03830116 178.93270619 2 176 C1.67 176 1.34 176 1 176 Z " fill="#FFFFFF" transform="translate(2250,1113)"/>
<path d="M0 0 C130.35 0 260.7 0 395 0 C395 32.34 395 64.68 395 98 C349.79 98 304.58 98 258 98 C258 231.32 258 364.64 258 502 C217.41 502 176.82 502 135 502 C134.67 368.68 134.34 235.36 134 98 C89.78 98 45.56 98 0 98 C0 65.66 0 33.32 0 0 Z " fill="#FFFFFF" transform="translate(1683,1110)"/>
<path d="M0 0 C40.59 0 81.18 0 123 0 C123 165.66 123 331.32 123 502 C82.41 502 41.82 502 0 502 C0 336.34 0 170.68 0 0 Z " fill="#FFFFFF" transform="translate(1511,1110)"/>
</svg>
